<svg xmlns="http://www.w3.org/2000/svg" viewBox="0 0 350.32 113.99"><defs><style>.cls-1,.cls-2,.cls-3{font-size:65px;font-family:Carlito-BoldItalic, Carlito;font-weight:700;font-style:italic;}.cls-1,.cls-2,.cls-4{fill:#fff;}.cls-1{letter-spacing:-0.02em;}.cls-2{letter-spacing:0.13em;}.cls-3{fill:#212121;letter-spacing:-0.04em;}.cls-12,.cls-13,.cls-14,.cls-15,.cls-16,.cls-17,.cls-18,.cls-19,.cls-20,.cls-21,.cls-5,.cls-6{fill:none;stroke-miterlimit:10;}.cls-12,.cls-13,.cls-14,.cls-15,.cls-16,.cls-17,.cls-18,.cls-19,.cls-20,.cls-5{stroke:#fff;}.cls-5{stroke-width:2.51px;}.cls-6{stroke:#fcfcfc;stroke-width:2.55px;}.cls-7{opacity:0.25;}.cls-8{opacity:0.75;}.cls-9{fill:#f0514e;}.cls-10{opacity:0.1;}.cls-11{fill:#003570;}.cls-12{stroke-width:1.45px;}.cls-13{stroke-width:1.24px;}.cls-14{stroke-width:2.59px;}.cls-15{stroke-width:3.77px;}.cls-16{stroke-width:3.94px;}.cls-17{stroke-width:2.31px;}.cls-18{stroke-width:2.41px;}.cls-19{stroke-width:1.73px;}.cls-20{stroke-width:1.81px;}.cls-21{stroke:#03423d;stroke-width:0.59px;}</style></defs><title>Asset 13</title><g id="Layer_2" data-name="Layer 2"><g id="Steto"><text class="cls-1" transform="translate(0.43 65.61) scale(1.13 1.14)">S</text><text class="cls-1" transform="translate(33.43 65.61) scale(1.13 1.02)"><tspan xml:space="preserve">   </tspan></text><text class="cls-2" transform="translate(79.73 65.61) scale(1.22 1.02)">N</text><text class="cls-3" transform="translate(142.31 65.61) scale(1.22 1.04)">H<tspan class="cls-4" x="38.41" y="0">ealth</tspan></text><line class="cls-5" x1="29.01" y1="96.18" x2="29.77" y2="103.96"/><path class="cls-6" d="M44.38,112.37c-8.06.63-14.63-3.43-14.68-9.06"/><g class="cls-7"><path class="cls-4" d="M31.1,94.1l-8.3-7.47a4.53,4.53,0,0,1,.26-7.18A6.7,6.7,0,0,1,27.4,78.1a6.93,6.93,0,0,1,.76.07,4,4,0,0,0-2.52,1.36,5.82,5.82,0,0,0-.26,7.18Z"/></g><g class="cls-8"><path class="cls-4" d="M25.18,78.42a.36.36,0,0,1-.24-.19.36.36,0,0,1,.16-.48,4.11,4.11,0,0,1,2-.43.36.36,0,0,1,.35.37.36.36,0,0,1-.37.34,3.39,3.39,0,0,0-1.65.35A.36.36,0,0,1,25.18,78.42Z"/></g><g class="cls-8"><path class="cls-4" d="M24.15,84.32a.36.36,0,0,1-.18-.11,4.09,4.09,0,0,1-.45-5.07.36.36,0,0,1,.6.4,3.38,3.38,0,0,0,.37,4.18.36.36,0,0,1-.34.59Z"/></g><path class="cls-9" d="M34.93,78h0a5.89,5.89,0,0,0-8.35,1.18h0a5.89,5.89,0,0,0-8.35,1.18h0a6.13,6.13,0,0,0,1.23,8.48L29,96.14l7.12-9.65h0A6.13,6.13,0,0,0,34.93,78Z"/><g class="cls-10"><path class="cls-11" d="M37.27,82a6.07,6.07,0,0,1-1.11,4.48L29,96.14l4.61-9.3a8.12,8.12,0,0,0-1.23-8.48A3.87,3.87,0,0,0,29.77,77a5.91,5.91,0,0,1,5.16,1A6.11,6.11,0,0,1,37.27,82Z"/></g><path class="cls-4" d="M29.15,96.84a.69.69,0,0,1-.52-.14l-9.58-7.3a6.85,6.85,0,0,1-1.37-9.47,6.58,6.58,0,0,1,8.77-1.69,6.59,6.59,0,0,1,8.9-.8h0a6.85,6.85,0,0,1,1.37,9.47L29.6,96.57A.69.69,0,0,1,29.15,96.84ZM22.26,78.72a5.17,5.17,0,0,0-3.46,2.07,5.42,5.42,0,0,0,1.09,7.49l9,6.87,6.7-9.09a5.42,5.42,0,0,0-1.09-7.49,5.21,5.21,0,0,0-7.37,1,.69.69,0,0,1-1,.14A5.21,5.21,0,0,0,22.26,78.72Z"/><ellipse class="cls-12" cx="27.64" cy="85.71" rx="1.76" ry="1.7" transform="translate(-16.09 6.98) rotate(-11.18)"/><path class="cls-13" d="M23.08,86.63a4.74,4.74,0,1,0,3.75-5.44A4.69,4.69,0,0,0,23.08,86.63Z"/><path class="cls-14" d="M61,65.66c-.39,26.16-8.74,47.2-18.66,47"/><path class="cls-15" d="M79.67,36.32C77.86,53,68.86,65.45,59.56,64.07"/><path class="cls-16" d="M38,36.32C40,53,49.84,65.45,60,64.07"/><path class="cls-17" d="M77,20.7c-.36,2.21-2.1,3.68-3.9,3.29s-3-2.51-2.61-4.72,2.1-3.68,3.9-3.29S77.34,18.49,77,20.7Z"/><path class="cls-18" d="M41,20.7A3.75,3.75,0,0,0,45.23,24a4,4,0,0,0,2.85-4.72A3.75,3.75,0,0,0,43.82,16,4,4,0,0,0,41,20.7Z"/><path class="cls-19" d="M76.5,20.47C80.75,22.62,81.86,31,79,39.27"/><path class="cls-20" d="M41.5,20.47C36.85,22.62,35.64,31,38.78,39.27"/><path class="cls-21" d="M35.82,31.66"/></g></g></svg>