<svg id="Layer_1" data-name="Layer 1" xmlns="http://www.w3.org/2000/svg" viewBox="0 0 344.48 94"><defs><style>.cls-1,.cls-4,.cls-6{fill:none;stroke-miterlimit:10;}.cls-1,.cls-4{stroke:#1d3968;}.cls-1{stroke-width:2.4px;}.cls-2{fill:#438bc6;}.cls-3{fill:#1d3968;}.cls-4{stroke-width:3px;}.cls-5{fill:#f9bf15;}.cls-6{stroke:#438bc6;}.cls-7{font-size:54px;fill:#344179;font-family:GlaserSteD, Glaser Stencil D;}.cls-8{fill:#f7bd14;}</style></defs><title>almondAI logo</title><path class="cls-1" d="M120,282a10.35,10.35,0,0,1-10.35,10.35h0A10.35,10.35,0,0,1,99.34,282v-9.58c0-5.71,4.63-12.9,10.35-12.9h0c5.71,0,10.35,7.19,10.35,12.9Z" transform="translate(-80.92 -203)"/><rect class="cls-2" x="30.94" y="85.35" width="2.37" height="6.37"/><rect class="cls-2" x="24.22" y="85.35" width="2.37" height="6.37"/><rect class="cls-3" x="25.58" y="83.06" width="6.38" height="10.94" rx="1.37" ry="1.37"/><rect class="cls-2" x="15.36" y="63.56" width="12.75" height="13.85" rx="3.41" ry="3.41"/><rect class="cls-2" x="29.42" y="63.56" width="12.75" height="13.85" rx="3.41" ry="3.41"/><path class="cls-4" d="M93.72,254.05s-15.47,1.7-9.94,24.15" transform="translate(-80.92 -203)"/><path class="cls-2" d="M85.33,287.68a.84.84,0,0,1-1-.69l-.85-6.18a.84.84,0,0,1,.69-1h0a.84.84,0,0,1,1,.69l.85,6.18a.84.84,0,0,1-.69,1Z" transform="translate(-80.92 -203)"/><path class="cls-2" d="M87.86,289.71a.84.84,0,0,1-1.18,0l-2-1.83a.84.84,0,0,1,0-1.18h0a.84.84,0,0,1,1.18,0l2,1.83a.84.84,0,0,1,0,1.18Z" transform="translate(-80.92 -203)"/><circle class="cls-3" cx="85.2" cy="287.05" r="0.97" transform="translate(-292.82 121.29) rotate(-80.61)"/><path class="cls-2" d="M89.47,285.92a.84.84,0,0,1-1.17-.15l-3.69-5a.84.84,0,0,1,.15-1.17h0a.84.84,0,0,1,1.17.15l3.69,5a.84.84,0,0,1-.15,1.17Z" transform="translate(-80.92 -203)"/><path class="cls-2" d="M92.54,286.53a.84.84,0,0,1-1.07.51l-2.52-.9a.84.84,0,0,1-.51-1.07h0a.84.84,0,0,1,1.07-.51l2.52.9a.84.84,0,0,1,.51,1.07Z" transform="translate(-80.92 -203)"/><circle class="cls-3" cx="88.97" cy="285.32" r="0.97" transform="translate(-281.55 156.17) rotate(-86.99)"/><path class="cls-2" d="M90,278.27a.92.92,0,0,1-.88.95l-4,.14a.92.92,0,0,1-.95-.88h0a.92.92,0,0,1,.88-.95l4-.14a.92.92,0,0,1,.95.88Z" transform="translate(-80.92 -203)"/><path class="cls-2" d="M92.53,279.59a.92.92,0,0,1-1.19.52l-2.16-.89a.92.92,0,0,1-.52-1.19h0a.92.92,0,0,1,1.19-.52l2.16.89a.92.92,0,0,1,.52,1.19Z" transform="translate(-80.92 -203)"/><circle class="cls-3" cx="89.2" cy="278.24" r="0.97" transform="translate(-96.51 -197.51) rotate(-3.24)"/><rect class="cls-5" x="81.52" y="275.91" width="5.98" height="7.25" rx="1.52" ry="1.52" transform="translate(-166.67 -160.72) rotate(-18.84)"/><rect class="cls-2" x="11.18" y="46.68" width="5.19" height="9.6" rx="1.48" ry="1.48"/><path class="cls-4" d="M125.65,254.05s15.47,1.7,9.94,24.15" transform="translate(-80.92 -203)"/><path class="cls-2" d="M134,287.68a.84.84,0,0,0,1-.69l.85-6.18a.84.84,0,0,0-.69-1h0a.84.84,0,0,0-1,.69l-.85,6.18a.84.84,0,0,0,.69,1Z" transform="translate(-80.92 -203)"/><path class="cls-2" d="M131.51,289.71a.84.84,0,0,0,1.18,0l2-1.83a.84.84,0,0,0,0-1.18h0a.84.84,0,0,0-1.18,0l-2,1.83a.84.84,0,0,0,0,1.18Z" transform="translate(-80.92 -203)"/><circle class="cls-3" cx="134.17" cy="287.05" r="0.97" transform="translate(-125.95 -177.27) rotate(-9.39)"/><path class="cls-2" d="M129.9,285.92a.84.84,0,0,0,1.17-.15l3.69-5a.84.84,0,0,0-.15-1.17h0a.84.84,0,0,0-1.17.15l-3.69,5a.84.84,0,0,0,.15,1.17Z" transform="translate(-80.92 -203)"/><path class="cls-2" d="M126.82,286.53a.84.84,0,0,0,1.07.51l2.52-.9a.84.84,0,0,0,.51-1.07h0a.84.84,0,0,0-1.07-.51l-2.52.9a.84.84,0,0,0-.51,1.07Z" transform="translate(-80.92 -203)"/><circle class="cls-3" cx="130.4" cy="285.32" r="0.97" transform="translate(-95.73 -195.75) rotate(-3.01)"/><path class="cls-2" d="M129.38,278.27a.92.92,0,0,0,.88.95l4,.14a.92.92,0,0,0,.95-.88h0a.92.92,0,0,0-.88-.95l-4-.14a.92.92,0,0,0-.95.88Z" transform="translate(-80.92 -203)"/><path class="cls-2" d="M126.84,279.59a.92.92,0,0,0,1.19.52l2.16-.89a.92.92,0,0,0,.52-1.19h0a.92.92,0,0,0-1.19-.52l-2.16.89a.92.92,0,0,0-.52,1.19Z" transform="translate(-80.92 -203)"/><circle class="cls-3" cx="130.17" cy="278.24" r="0.97" transform="translate(-235.9 189.47) rotate(-86.76)"/><rect class="cls-5" x="131.23" y="276.55" width="7.25" height="5.98" rx="1.52" ry="1.52" transform="translate(-254.18 113.88) rotate(-71.16)"/><rect class="cls-2" x="41.16" y="46.68" width="5.19" height="9.6" rx="1.48" ry="1.48"/><rect class="cls-3" x="25.47" y="37.06" width="6.6" height="12.61"/><rect class="cls-2" x="22.96" y="43.22" width="11.62" height="10.07" rx="1.55" ry="1.55"/><path class="cls-5" d="M125.23,251a3.32,3.32,0,0,0-3.32-3.32H97.45A3.32,3.32,0,0,0,94.13,251v7.54h0v7.16a15.55,15.55,0,0,0,31.1,0v-7.16h0Z" transform="translate(-80.92 -203)"/><text x="-80.92" y="-203"></text><circle class="cls-2" cx="36.31" cy="53.32" r="3.77"/><circle class="cls-3" cx="36.31" cy="53.32" r="1.79"/><circle class="cls-2" cx="36.31" cy="62.08" r="1.22"/><circle class="cls-2" cx="36.31" cy="66.65" r="1.22"/><path class="cls-2" d="M111.27,254.83a.4.4,0,0,1-.4.4H98.76a.4.4,0,0,1-.4-.4h0a.4.4,0,0,1,.4-.4h12.12a.4.4,0,0,1,.4.4Z" transform="translate(-80.92 -203)"/><path class="cls-2" d="M111.27,257.81a.4.4,0,0,1-.4.4H98.76a.4.4,0,0,1-.4-.4h0a.4.4,0,0,1,.4-.4h12.12a.4.4,0,0,1,.4.4Z" transform="translate(-80.92 -203)"/><ellipse class="cls-3" cx="8.11" cy="26.48" rx="2.6" ry="5.05"/><ellipse class="cls-3" cx="49.43" cy="26.48" rx="2.6" ry="5.05"/><rect class="cls-2" x="7.44" y="18.7" width="7.82" height="15.31" rx="1.95" ry="1.95"/><rect class="cls-2" x="42.27" y="18.7" width="7.82" height="15.31" rx="1.95" ry="1.95"/><path class="cls-6" d="M109.68,215.12" transform="translate(-80.92 -203)"/><path class="cls-3" d="M109.68,241.18c7.16,0,13-3.35,13-9.58V217.36a21.06,21.06,0,0,0-25.92,0V231.6C96.72,237.83,102.53,241.18,109.68,241.18Z" transform="translate(-80.92 -203)"/><path class="cls-6" d="M109.68,206.8" transform="translate(-80.92 -203)"/><ellipse class="cls-5" cx="28.77" cy="10.58" rx="4.64" ry="1.13"/><line class="cls-6" x1="28.77" y1="10.45" x2="28.77" y2="3.8"/><circle class="cls-3" cx="28.77" cy="2.61" r="2.61"/><path class="cls-2" d="M106.38,230.27a1.77,1.77,0,0,1-1.77,1.77h0a1.77,1.77,0,0,1-1.77-1.77v-4.72a1.77,1.77,0,0,1,1.77-1.77h0a1.77,1.77,0,0,1,1.77,1.77Z" transform="translate(-80.92 -203)"/><path class="cls-2" d="M116.53,230.27a1.77,1.77,0,0,1-1.77,1.77h0a1.77,1.77,0,0,1-1.77-1.77v-4.72a1.77,1.77,0,0,1,1.77-1.77h0a1.77,1.77,0,0,1,1.77,1.77Z" transform="translate(-80.92 -203)"/><text class="cls-7" transform="translate(72.91 65.43)">Almond<tspan class="cls-8" x="222.53" y="0">AI</tspan></text></svg>